<svg width="332" height="241" viewBox="0 0 332 241" fill="none" xmlns="http://www.w3.org/2000/svg">
<g clip-path="url(#clip0_32_563)">
<path d="M211.567 180.407V238.418H66.2286C49.6692 238.418 36.1963 225.406 36.1963 209.413C36.1963 193.419 49.6692 180.407 66.2286 180.407H211.567Z" fill="#F2F2F2"/>
<path d="M215.137 237.972C215.137 238.563 214.902 239.131 214.483 239.549C214.065 239.968 213.498 240.203 212.906 240.203H63.6397C55.5328 240.203 47.7579 236.982 42.0254 231.25C36.293 225.518 33.0725 217.743 33.0725 209.636C33.0725 201.529 36.293 193.754 42.0254 188.021C47.7579 182.289 55.5328 179.069 63.6397 179.069H212.906C213.498 179.069 214.065 179.304 214.484 179.722C214.902 180.14 215.137 180.708 215.137 181.3C215.137 181.891 214.902 182.459 214.484 182.877C214.065 183.296 213.498 183.531 212.906 183.531H63.6397C56.7163 183.531 50.0764 186.281 45.1808 191.177C40.2852 196.072 37.5349 202.712 37.5349 209.636C37.5349 216.559 40.2852 223.199 45.1808 228.095C50.0764 232.99 56.7163 235.741 63.6397 235.741H212.906C213.498 235.741 214.065 235.976 214.483 236.394C214.902 236.813 215.137 237.38 215.137 237.972Z" fill="#FFD600"/>
<path d="M211.567 193.794H55.3843C55.266 193.794 55.1525 193.747 55.0688 193.664C54.9851 193.58 54.9381 193.466 54.9381 193.348C54.9381 193.23 54.9851 193.116 55.0688 193.033C55.1525 192.949 55.266 192.902 55.3843 192.902H211.567C211.686 192.902 211.799 192.949 211.883 193.033C211.966 193.116 212.013 193.23 212.013 193.348C212.013 193.466 211.966 193.58 211.883 193.664C211.799 193.747 211.686 193.794 211.567 193.794Z" fill="#CCCCCC"/>
<path d="M211.567 204.504H55.3843C55.266 204.504 55.1525 204.457 55.0688 204.373C54.9851 204.29 54.9381 204.176 54.9381 204.058C54.9381 203.939 54.9851 203.826 55.0688 203.742C55.1525 203.659 55.266 203.612 55.3843 203.612H211.567C211.686 203.612 211.799 203.659 211.883 203.742C211.966 203.826 212.013 203.939 212.013 204.058C212.013 204.176 211.966 204.29 211.883 204.373C211.799 204.457 211.686 204.504 211.567 204.504Z" fill="#CCCCCC"/>
<path d="M211.567 215.214H55.3843C55.266 215.214 55.1525 215.167 55.0688 215.083C54.9851 214.999 54.9381 214.886 54.9381 214.767C54.9381 214.649 54.9851 214.536 55.0688 214.452C55.1525 214.368 55.266 214.321 55.3843 214.321H211.567C211.686 214.321 211.799 214.368 211.883 214.452C211.966 214.536 212.013 214.649 212.013 214.767C212.013 214.886 211.966 214.999 211.883 215.083C211.799 215.167 211.686 215.214 211.567 215.214Z" fill="#CCCCCC"/>
<path d="M211.567 225.923H55.3843C55.266 225.923 55.1525 225.876 55.0688 225.793C54.9851 225.709 54.9381 225.595 54.9381 225.477C54.9381 225.359 54.9851 225.245 55.0688 225.162C55.1525 225.078 55.266 225.031 55.3843 225.031H211.567C211.686 225.031 211.799 225.078 211.883 225.162C211.966 225.245 212.013 225.359 212.013 225.477C212.013 225.595 211.966 225.709 211.883 225.793C211.799 225.876 211.686 225.923 211.567 225.923Z" fill="#CCCCCC"/>
<path d="M323.893 191.327L287.495 236.499L174.323 145.31C161.429 134.921 159.102 116.335 169.136 103.882C179.171 91.4279 197.826 89.7488 210.72 100.138L323.893 191.327Z" fill="#F2F2F2"/>
<path d="M290.555 238.391C290.184 238.852 289.645 239.146 289.056 239.209C288.468 239.273 287.879 239.1 287.418 238.729L171.187 145.076C164.875 139.989 160.841 132.604 159.974 124.543C159.107 116.483 161.477 108.408 166.564 102.095C171.65 95.7827 179.036 91.7491 187.097 90.882C195.157 90.0149 203.232 92.3853 209.544 97.4718L325.775 191.124C326.003 191.308 326.193 191.535 326.334 191.792C326.474 192.05 326.563 192.332 326.594 192.623C326.626 192.915 326.6 193.21 326.517 193.491C326.435 193.772 326.297 194.034 326.114 194.263C325.93 194.491 325.703 194.681 325.445 194.821C325.188 194.961 324.906 195.05 324.614 195.081C324.323 195.112 324.028 195.086 323.747 195.003C323.466 194.921 323.203 194.783 322.975 194.599L206.745 100.947C204.075 98.7941 201.008 97.1886 197.718 96.2217C194.428 95.2549 190.98 94.9457 187.571 95.3118C184.162 95.6778 180.858 96.712 177.848 98.3553C174.838 99.9985 172.182 102.219 170.031 104.889C167.879 107.559 166.275 110.627 165.309 113.917C164.344 117.207 164.036 120.655 164.403 124.065C164.771 127.474 165.806 130.777 167.451 133.786C169.095 136.795 171.316 139.451 173.987 141.601L290.218 235.254C290.678 235.625 290.973 236.164 291.036 236.753C291.099 237.341 290.926 237.93 290.555 238.391Z" fill="#CCCCCC"/>
<path d="M315.493 201.751L193.877 103.759C193.831 103.722 193.793 103.677 193.765 103.625C193.737 103.574 193.719 103.517 193.713 103.459C193.707 103.401 193.712 103.342 193.729 103.286C193.745 103.23 193.773 103.177 193.809 103.131C193.846 103.086 193.891 103.048 193.943 103.02C193.994 102.992 194.051 102.974 194.109 102.968C194.167 102.962 194.226 102.967 194.282 102.983C194.339 103 194.391 103.027 194.437 103.064L316.053 201.056C316.099 201.093 316.137 201.138 316.165 201.19C316.193 201.241 316.211 201.298 316.217 201.356C316.224 201.414 316.218 201.473 316.202 201.53C316.185 201.586 316.158 201.638 316.121 201.684C316.084 201.73 316.039 201.768 315.987 201.796C315.936 201.824 315.879 201.842 315.821 201.848C315.763 201.854 315.704 201.849 315.648 201.832C315.591 201.816 315.539 201.788 315.493 201.751Z" fill="#CCCCCC"/>
<path d="M308.774 210.091L187.157 112.098C187.065 112.024 187.007 111.916 186.994 111.799C186.981 111.681 187.016 111.563 187.09 111.471C187.164 111.379 187.272 111.32 187.39 111.308C187.507 111.295 187.625 111.329 187.717 111.403L309.334 209.396C309.379 209.432 309.417 209.478 309.446 209.529C309.474 209.581 309.491 209.637 309.498 209.696C309.504 209.754 309.499 209.813 309.482 209.869C309.466 209.925 309.438 209.978 309.402 210.024C309.365 210.069 309.319 210.107 309.268 210.135C309.216 210.163 309.16 210.181 309.102 210.187C309.043 210.193 308.984 210.188 308.928 210.172C308.872 210.155 308.819 210.128 308.774 210.091Z" fill="#CCCCCC"/>
<path d="M302.054 218.43L180.438 120.438C180.346 120.363 180.287 120.256 180.274 120.138C180.262 120.02 180.296 119.902 180.37 119.81C180.445 119.718 180.552 119.659 180.67 119.647C180.788 119.634 180.906 119.669 180.998 119.743L302.614 217.735C302.66 217.772 302.698 217.817 302.726 217.869C302.754 217.92 302.772 217.977 302.778 218.035C302.784 218.093 302.779 218.152 302.762 218.208C302.746 218.265 302.719 218.317 302.682 218.363C302.645 218.408 302.6 218.446 302.548 218.474C302.497 218.502 302.44 218.52 302.382 218.526C302.324 218.533 302.265 218.527 302.209 218.511C302.152 218.494 302.1 218.467 302.054 218.43Z" fill="#CCCCCC"/>
<path d="M295.335 226.77L173.718 128.777C173.673 128.74 173.635 128.695 173.607 128.644C173.579 128.592 173.561 128.536 173.555 128.477C173.548 128.419 173.554 128.36 173.57 128.304C173.587 128.248 173.614 128.195 173.651 128.15C173.688 128.104 173.733 128.066 173.784 128.038C173.836 128.01 173.892 127.992 173.951 127.986C174.009 127.98 174.068 127.985 174.124 128.002C174.18 128.018 174.233 128.045 174.278 128.082L295.895 226.075C295.941 226.111 295.979 226.157 296.007 226.208C296.035 226.26 296.053 226.316 296.059 226.374C296.065 226.433 296.06 226.492 296.043 226.548C296.027 226.604 296 226.657 295.963 226.702C295.926 226.748 295.881 226.786 295.829 226.814C295.778 226.842 295.721 226.86 295.663 226.866C295.604 226.872 295.545 226.867 295.489 226.85C295.433 226.834 295.38 226.806 295.335 226.77Z" fill="#CCCCCC"/>
<path d="M331.554 240.649H0.446237C0.327887 240.649 0.214385 240.602 0.130699 240.518C0.0470137 240.435 0 240.321 0 240.203C0 240.085 0.0470137 239.971 0.130699 239.887C0.214385 239.804 0.327887 239.757 0.446237 239.757H331.554C331.672 239.757 331.786 239.804 331.869 239.887C331.953 239.971 332 240.085 332 240.203C332 240.321 331.953 240.435 331.869 240.518C331.786 240.602 331.672 240.649 331.554 240.649Z" fill="#CCCCCC"/>
<path d="M150.864 174.31L145.763 174.309L143.337 154.632L150.866 154.633L150.864 174.31Z" fill="#FFB8B8"/>
<path d="M142.118 172.852H151.957V179.046H135.924C135.924 178.233 136.084 177.427 136.395 176.676C136.707 175.924 137.163 175.241 137.738 174.666C138.313 174.091 138.996 173.635 139.748 173.323C140.499 173.012 141.305 172.852 142.118 172.852Z" fill="#2F2E41"/>
<path d="M98.7461 174.31L93.6447 174.309L91.2185 154.632L98.7478 154.633L98.7461 174.31Z" fill="#FFB8B8"/>
<path d="M90.0004 172.852H99.839V179.046H83.8058C83.8058 178.233 83.966 177.427 84.2773 176.676C84.5886 175.924 85.0449 175.241 85.6201 174.666C86.1954 174.091 86.8783 173.635 87.6298 173.323C88.3814 173.012 89.1869 172.852 90.0004 172.852Z" fill="#2F2E41"/>
<path d="M115.785 28.3508V26.1196C115.785 22.3028 117.302 18.6424 120 15.9435C122.699 13.2447 126.36 11.7285 130.177 11.7285C133.993 11.7285 137.654 13.2447 140.353 15.9435C143.051 18.6424 144.568 22.3028 144.568 26.1196V28.3508C144.568 31.1024 143.475 33.7413 141.529 35.687C139.583 37.6327 136.944 38.7258 134.193 38.7258H126.16C124.798 38.7258 123.449 38.4574 122.19 37.9361C120.931 37.4147 119.788 36.6504 118.824 35.687C117.861 34.7236 117.097 33.5799 116.575 32.3211C116.054 31.0624 115.785 29.7133 115.785 28.3508Z" fill="#2F2E41"/>
<path d="M130.177 39.4935C136.23 39.4935 141.137 34.5865 141.137 28.5335C141.137 22.4804 136.23 17.5735 130.177 17.5735C124.124 17.5735 119.217 22.4804 119.217 28.5335C119.217 34.5865 124.124 39.4935 130.177 39.4935Z" fill="#FFB8B8"/>
<path d="M70.5611 66.2017C71.0058 65.7817 71.5373 65.4644 72.118 65.272C72.6987 65.0796 73.3144 65.0169 73.922 65.0883C74.5295 65.1596 75.1141 65.3633 75.6344 65.685C76.1547 66.0067 76.5981 66.4386 76.9334 66.9502L86.3288 65.173L88.8013 70.6191L75.498 72.9425C74.6012 73.4489 73.5498 73.6087 72.543 73.3917C71.5362 73.1747 70.644 72.5958 70.0355 71.765C69.4269 70.9341 69.1443 69.9088 69.2412 68.8835C69.3381 67.8581 69.8077 66.9039 70.5611 66.2017Z" fill="#FFB8B8"/>
<path d="M121.755 46.5819L106.348 56.7313L80.351 65.0328C80.0064 65.1435 79.7108 65.3703 79.5146 65.6744C79.3183 65.9786 79.2335 66.3413 79.2747 66.7009L79.8418 71.5857C79.867 71.8019 79.937 72.0105 80.0475 72.198C80.1579 72.3855 80.3064 72.5479 80.4833 72.6747C80.6601 72.8015 80.8616 72.89 81.0747 72.9344C81.2877 72.9788 81.5077 72.9783 81.7206 72.9327L106.188 67.6882C107.372 67.4358 108.491 66.9429 109.477 66.2399L126.786 53.9252C127.413 53.4763 127.914 52.8727 128.239 52.1731C128.564 51.4734 128.703 50.7015 128.641 49.9325C128.578 49.1624 128.315 48.422 127.878 47.7843C127.442 47.1466 126.847 46.6335 126.152 46.2954C125.458 45.9574 124.687 45.806 123.916 45.8562C123.144 45.9065 122.4 46.1566 121.755 46.5819Z" fill="#CCCCCC"/>
<path d="M145.854 168.726C145.462 168.726 145.079 168.612 144.751 168.398C144.423 168.184 144.165 167.879 144.007 167.521L120.62 109.732C120.566 109.607 120.474 109.502 120.357 109.43C120.241 109.358 120.105 109.324 119.969 109.332C119.832 109.339 119.702 109.389 119.594 109.473C119.486 109.557 119.407 109.672 119.367 109.803L100.287 166.062C100.206 166.324 100.073 166.566 99.895 166.775C99.7173 166.983 99.4988 167.153 99.2529 167.274C99.0071 167.395 98.7391 167.464 98.4656 167.477C98.192 167.491 97.9185 167.448 97.662 167.352L91.2637 164.952C90.9164 164.823 90.6117 164.601 90.3835 164.309C90.1553 164.017 90.0125 163.668 89.971 163.299C87.0925 138.224 112.194 74.9313 112.448 74.295L112.518 74.1187L135.399 79.1803L135.447 79.2322C144.576 89.1912 152.08 152.005 153.491 164.496C153.544 164.947 153.441 165.403 153.2 165.788C152.959 166.173 152.594 166.465 152.166 166.614L146.518 168.612C146.305 168.687 146.08 168.726 145.854 168.726Z" fill="#2F2E41"/>
<path d="M126.139 81.2176C120.595 81.2176 114.414 80.1123 112.512 75.5501L112.468 75.4453L112.527 75.3481C114.029 72.8842 116.014 68.6811 114.947 67.8922C112.845 66.3384 111.826 63.7823 111.916 60.2948C112.113 52.724 117.271 46.0024 124.753 43.5688C126.841 42.9005 128.966 42.3533 131.117 41.93C132.686 41.6136 134.305 41.6484 135.858 42.032C137.411 42.4156 138.86 43.1384 140.101 44.1486C141.358 45.1654 142.373 46.4478 143.075 47.9038C143.777 49.3598 144.147 50.9531 144.16 52.5693C144.239 60.66 142.993 71.9285 136.613 79.6649C136.314 80.0239 135.898 80.2658 135.438 80.3482C132.369 80.9034 129.258 81.1942 126.139 81.2176Z" fill="#CCCCCC"/>
<path d="M124.077 80.9146C124.378 79.8323 125.095 78.9129 126.071 78.356C127.047 77.7992 128.203 77.65 129.288 77.9408C129.51 78.0027 129.726 78.0828 129.934 78.1801L137.068 71.6879L142.029 75.0303L131.827 84.0581C131.367 84.8886 130.642 85.5413 129.767 85.9122C128.893 86.2831 127.92 86.3508 127.002 86.1048C126.468 85.9585 125.968 85.7078 125.531 85.3671C125.094 85.0264 124.729 84.6025 124.457 84.1199C124.185 83.6372 124.011 83.1055 123.946 82.5553C123.881 82.0051 123.925 81.4475 124.077 80.9146Z" fill="#FFB8B8"/>
<path d="M135.938 80.9971C135.475 80.9974 135.026 80.8373 134.668 80.5441L131.855 78.2452C131.62 78.0535 131.432 77.8113 131.305 77.5366C131.177 77.262 131.113 76.9621 131.118 76.6592C131.122 76.3564 131.196 76.0586 131.332 75.788C131.468 75.5174 131.663 75.2812 131.904 75.0969L143.703 66.0473C143.843 65.9395 143.934 65.7809 143.958 65.6059C143.982 65.4309 143.936 65.2536 143.829 65.1126L136.547 55.4845C135.7 54.3696 135.276 52.9913 135.349 51.5936C135.421 50.1959 135.986 48.8689 136.943 47.8475C137.95 46.759 139.331 46.0892 140.809 45.971C142.288 45.8527 143.757 46.2946 144.925 47.209L144.971 47.2576L152.576 58.1469C153.398 58.7916 154.06 59.6178 154.51 60.5608C154.961 61.5037 155.187 62.5381 155.171 63.5829C155.156 64.6278 154.899 65.6549 154.421 66.5841C153.943 67.5133 153.256 68.3193 152.415 68.9393L137.133 80.6034C136.787 80.8591 136.368 80.9971 135.938 80.9971Z" fill="#CCCCCC"/>
<path d="M120.468 25.4502V20.0123L130.177 15.7731L139.433 20.0123V25.4502C139.433 25.6869 139.339 25.9139 139.172 26.0813C139.005 26.2487 138.778 26.3427 138.541 26.3427H121.361C121.124 26.3427 120.897 26.2487 120.73 26.0813C120.562 25.9139 120.468 25.6869 120.468 25.4502Z" fill="#2F2E41"/>
<path d="M129.731 12.4499C128.304 7.88106 131.301 2.645 135.733 0.83655C140.165 -0.971899 145.467 0.292263 149.207 3.28009C152.946 6.26792 155.266 10.7431 156.496 15.3692C157.725 19.9952 157.959 24.819 158.186 29.6003C163.631 30.6004 167.335 37.0588 165.448 42.2637C163.562 47.4686 156.58 50.0545 151.759 47.334C146.937 44.6135 145.541 37.3005 149.021 32.9947C150.667 30.9574 151.587 28.4288 151.634 25.8097C151.682 23.1905 150.854 20.6305 149.282 18.5349C147.71 16.4394 145.484 14.9282 142.956 14.2407C140.428 13.5532 137.743 13.7287 135.327 14.7393C132.643 15.8616 129.276 12.9457 129.731 12.4499Z" fill="#2F2E41"/>
<path d="M68.5483 45.1068C62.0291 45.064 55.5913 43.654 49.651 40.968C49.2974 40.8104 48.9973 40.5534 48.7872 40.2282C48.5771 39.903 48.466 39.5238 48.4677 39.1366V22.8856C48.4683 22.3532 48.68 21.8428 49.0565 21.4664C49.4329 21.0899 49.9433 20.8782 50.4757 20.8776H86.6209C87.1533 20.8782 87.6637 21.0899 88.0402 21.4664C88.4166 21.8428 88.6284 22.3532 88.629 22.8856V39.1367C88.6306 39.5238 88.5196 39.903 88.3095 40.2282C88.0994 40.5534 87.7992 40.8104 87.4456 40.968C81.5053 43.6541 75.0675 45.064 68.5483 45.1068Z" fill="#FFD600"/>
<path d="M68.5432 31.9416C68.2753 31.9418 68.01 31.8885 67.7629 31.7847L39.1003 19.6919C38.7306 19.536 38.4162 19.2729 38.1975 18.9366C37.9788 18.6003 37.8658 18.2062 37.8731 17.8051C37.8805 17.404 38.0078 17.0143 38.2387 16.6862C38.4696 16.3581 38.7935 16.1068 39.1686 15.9645L67.8316 5.09071C68.2933 4.91476 68.8037 4.91585 69.2646 5.09376L97.5435 15.9675C97.9165 16.1109 98.2382 16.3624 98.4675 16.6897C98.6967 17.0169 98.8231 17.4052 98.8305 17.8047C98.8379 18.2042 98.7259 18.5969 98.5089 18.9324C98.2919 19.2679 97.9797 19.5311 97.6123 19.6882L69.333 31.7808C69.0833 31.8872 68.8147 31.9419 68.5432 31.9416Z" fill="#FFD600"/>
<path d="M51.8144 42.0738C53.2931 42.0738 54.4918 40.8751 54.4918 39.3964C54.4918 37.9177 53.2931 36.719 51.8144 36.719C50.3357 36.719 49.137 37.9177 49.137 39.3964C49.137 40.8751 50.3357 42.0738 51.8144 42.0738Z" fill="#3F3D56"/>
<path opacity="0.2" d="M97.7101 17.9716L69.4307 30.0643C69.2103 30.1585 68.9731 30.2074 68.7333 30.208C68.4935 30.2086 68.2561 30.1609 68.0351 30.0676L39.3725 17.9752C39.0125 17.8269 38.7122 17.563 38.519 17.225C38.3926 17.4442 38.3143 17.6877 38.2893 17.9394C38.2642 18.1912 38.293 18.4454 38.3737 18.6851C38.4545 18.9249 38.5853 19.1448 38.7575 19.3301C38.9297 19.5154 39.1393 19.662 39.3725 19.7601L68.0351 31.8526C68.2561 31.9458 68.4935 31.9935 68.7333 31.993C68.9731 31.9924 69.2103 31.9435 69.4307 31.8492L97.7101 19.7566C97.9421 19.6576 98.1505 19.5106 98.3215 19.3251C98.4925 19.1397 98.6222 18.9201 98.7021 18.6809C98.782 18.4416 98.8102 18.1882 98.785 17.9372C98.7597 17.6862 98.6815 17.4435 98.5555 17.225C98.3637 17.5602 98.0665 17.8227 97.7101 17.9716Z" fill="black"/>
<path d="M52.0394 39.3859C52.1577 39.3859 52.2712 39.3389 52.3549 39.2553C52.4386 39.1716 52.4856 39.0581 52.4856 38.9397V24.008L67.203 18.6464C67.3214 18.6482 67.4356 18.6028 67.5205 18.5204C67.6054 18.438 67.6542 18.3252 67.6559 18.2068C67.6577 18.0885 67.6124 17.9743 67.5299 17.8893C67.4475 17.8044 67.3347 17.7557 67.2163 17.7539L52.4989 23.1155C52.3805 23.1128 52.2627 23.1341 52.1528 23.1783C52.0428 23.2224 51.943 23.2884 51.8593 23.3722C51.7747 23.455 51.7076 23.554 51.6619 23.6632C51.6161 23.7724 51.5928 23.8896 51.5931 24.008V38.9397C51.5931 39.0581 51.6402 39.1716 51.7238 39.2552C51.8075 39.3389 51.921 39.3859 52.0394 39.3859Z" fill="#3F3D56"/>
</g>
<defs>
<clipPath id="clip0_32_563">
<rect width="332" height="240.649" fill="white"/>
</clipPath>
</defs>
</svg>
