<svg width="366" height="269" viewBox="0 0 366 269" fill="none" xmlns="http://www.w3.org/2000/svg">
<g clip-path="url(#clip0_25_63)">
<path d="M192.502 265.886H189.442L190.462 206.044H191.482L192.502 265.886Z" fill="#E6E6E6"/>
<path d="M194.916 168.315L199.847 160.693C198.385 156.653 196.696 152.699 194.788 148.85L191.599 151.425L194.124 147.523C191.718 142.787 189.824 139.802 189.824 139.802C189.824 139.802 179.934 155.388 176.63 171.889L182.958 181.669L175.953 176.011C175.703 177.933 175.575 179.869 175.568 181.807C175.568 201.35 181.951 217.193 189.824 217.193C197.698 217.193 204.081 201.35 204.081 181.807C204.081 175.749 202.71 169.41 200.819 163.547L194.916 168.315Z" fill="#E6E6E6"/>
<path d="M115 265.886H111.94L112.96 206.044H113.98L115 265.886Z" fill="#E6E6E6"/>
<path d="M118.561 168.315L123.493 160.693C122.03 156.653 120.341 152.699 118.433 148.85L115.245 151.425L117.77 147.523C115.363 142.787 113.47 139.802 113.47 139.802C113.47 139.802 103.58 155.388 100.275 171.889L106.604 181.669L99.598 176.011C99.3485 177.933 99.2201 179.869 99.2137 181.807C99.2137 201.35 105.596 217.193 113.47 217.193C121.343 217.193 127.726 201.35 127.726 181.807C127.726 175.749 126.355 169.41 124.465 163.547L118.561 168.315Z" fill="#E6E6E6"/>
<path d="M153.03 265.701H146.909L148.95 142.617H150.99L153.03 265.701Z" fill="#E6E6E6"/>
<path d="M158.35 65.0138L168.518 49.2993C165.503 40.9696 162.02 32.8166 158.086 24.8792L151.511 30.1898L156.717 22.144C151.756 12.3774 147.852 6.22394 147.852 6.22394C147.852 6.22394 127.459 38.3594 120.646 72.3837L133.694 92.549L119.25 80.8819C118.735 84.8454 118.47 88.8373 118.457 92.8339C118.457 133.13 131.618 165.796 147.852 165.796C164.086 165.796 177.247 133.13 177.247 92.8339C177.247 80.3418 174.421 67.2722 170.522 55.1825L158.35 65.0138Z" fill="#E6E6E6"/>
<path d="M123.317 56.4419C138.903 56.4419 151.538 43.807 151.538 28.221C151.538 12.635 138.903 0 123.317 0C107.731 0 95.0957 12.635 95.0957 28.221C95.0957 43.807 107.731 56.4419 123.317 56.4419Z" fill="#E6E6E6"/>
<path d="M366 265.531H0V266.455H366V265.531Z" fill="#3F3D56"/>
<path d="M329.413 120.525C329.566 120.525 329.717 120.495 329.858 120.437C329.999 120.378 330.128 120.293 330.236 120.185C330.344 120.077 330.429 119.949 330.488 119.807C330.546 119.666 330.576 119.515 330.576 119.362V106.958C330.578 106.771 330.535 106.587 330.449 106.421C330.364 106.255 330.24 106.112 330.088 106.005C329.935 105.897 329.759 105.829 329.574 105.805C329.389 105.78 329.201 105.802 329.026 105.866V91.8398C329.026 91.3308 328.925 90.8267 328.731 90.3564C328.536 89.8861 328.25 89.4587 327.89 89.0988C327.53 88.7388 327.103 88.4533 326.633 88.2585C326.162 88.0637 325.658 87.9634 325.149 87.9634H198.39C197.881 87.9634 197.377 88.0637 196.907 88.2585C196.437 88.4533 196.009 88.7388 195.649 89.0988C195.289 89.4587 195.004 89.8861 194.809 90.3564C194.614 90.8267 194.514 91.3308 194.514 91.8398V262.014C194.514 263.043 194.922 264.029 195.649 264.755C196.376 265.482 197.362 265.891 198.39 265.891H325.149C326.177 265.891 327.163 265.482 327.89 264.755C328.617 264.029 329.026 263.043 329.026 262.014V137.898C329.201 137.963 329.389 137.984 329.574 137.959C329.759 137.935 329.935 137.867 330.088 137.759C330.24 137.652 330.364 137.509 330.449 137.343C330.535 137.177 330.578 136.993 330.576 136.806V124.402C330.578 124.215 330.535 124.031 330.449 123.865C330.364 123.699 330.24 123.556 330.088 123.449C329.935 123.341 329.759 123.273 329.574 123.248C329.389 123.224 329.201 123.245 329.026 123.31V120.454C329.15 120.5 329.281 120.524 329.413 120.525Z" fill="#3F3D56"/>
<path d="M317.396 95.5224C317.906 95.5224 318.41 95.6227 318.88 95.8175C319.35 96.0123 319.778 96.2978 320.137 96.6578C320.497 97.0178 320.783 97.4451 320.978 97.9154C321.173 98.3857 321.273 98.8898 321.273 99.3989V254.455C321.273 255.484 320.864 256.47 320.137 257.197C319.411 257.923 318.425 258.332 317.396 258.332H206.143C205.115 258.332 204.129 257.923 203.402 257.196C202.675 256.47 202.267 255.484 202.267 254.455V99.3989C202.267 98.3708 202.675 97.3848 203.402 96.6578C204.129 95.9308 205.115 95.5224 206.143 95.5224H317.396Z" fill="white"/>
<path d="M261.77 93.3904C262.626 93.3904 263.32 92.6962 263.32 91.8398C263.32 90.9835 262.626 90.2892 261.77 90.2892C260.914 90.2892 260.219 90.9835 260.219 91.8398C260.219 92.6962 260.914 93.3904 261.77 93.3904Z" fill="white"/>
<path d="M307.806 115.863H212.527V125.332H307.806V115.863Z" fill="#FFD600"/>
<path d="M307.806 138.167H212.527V141.753H307.806V138.167Z" fill="#E6E6E6"/>
<path d="M307.806 149.113H212.527V152.699H307.806V149.113Z" fill="#E6E6E6"/>
<path d="M261.757 160.198H212.527V163.784H261.757V160.198Z" fill="#E6E6E6"/>
<path d="M307.806 171.48H212.527V175.066H307.806V171.48Z" fill="#E6E6E6"/>
<path d="M307.806 182.761H212.527V186.348H307.806V182.761Z" fill="#E6E6E6"/>
<path d="M260.109 194.043H212.527V197.629H260.109V194.043Z" fill="#E6E6E6"/>
<path d="M307.806 205.325H212.527V208.911H307.806V205.325Z" fill="#E6E6E6"/>
<path d="M307.806 216.606H212.527V220.193H307.806V216.606Z" fill="#E6E6E6"/>
<path d="M307.92 230.444H277.832V240.336H307.92V230.444Z" fill="#FFD600"/>
<path d="M110.437 150.885H109.759V128.309C109.759 124.829 108.377 121.491 105.916 119.03C103.455 116.569 100.117 115.186 96.6365 115.186H48.5466C46.8233 115.186 45.1168 115.525 43.5247 116.185C41.9326 116.844 40.4859 117.811 39.2673 119.03C38.0487 120.248 37.0821 121.695 36.4226 123.287C35.7632 124.879 35.4237 126.586 35.4237 128.309V252.768C35.4237 254.491 35.7632 256.198 36.4226 257.79C37.0821 259.382 38.0487 260.829 39.2673 262.047C40.4859 263.266 41.9326 264.232 43.5247 264.892C45.1168 265.551 46.8233 265.891 48.5466 265.891H96.6365C100.117 265.891 103.455 264.508 105.916 262.047C108.377 259.586 109.759 256.248 109.759 252.768V166.927H110.437V150.885Z" fill="#3F3D56"/>
<path d="M106.822 127.409V252.475C106.822 255.075 105.79 257.567 103.952 259.405C102.114 261.243 99.6209 262.276 97.0217 262.276H48.8393C46.24 262.276 43.7473 261.243 41.9093 259.405C40.0714 257.567 39.0388 255.075 39.0388 252.475V127.409C39.0388 125.066 39.9695 122.819 41.6261 121.162C43.2828 119.506 45.5296 118.575 47.8724 118.575H54.6751C54.4182 119.218 54.3038 119.908 54.3398 120.599C54.3757 121.29 54.5613 121.965 54.8835 122.578C55.2758 123.254 55.8314 123.821 56.4994 124.227C57.1675 124.633 57.9267 124.865 58.7076 124.902H86.7401C87.5211 124.865 88.2803 124.633 88.9484 124.227C89.6165 123.821 90.1721 123.254 90.5643 122.577C90.8864 121.965 91.0719 121.29 91.1078 120.599C91.1437 119.908 91.0293 119.218 90.7725 118.575H97.9885C100.331 118.575 102.578 119.506 104.235 121.163C105.891 122.819 106.822 125.066 106.822 127.409Z" fill="white"/>
<path d="M162.652 93.4635C162.652 93.4635 157.541 91.6379 154.255 98.9403C150.969 106.243 145.857 114.275 145.857 114.275L148.778 115.006C148.778 115.006 149.508 109.894 151.334 109.164L150.603 115.736C150.603 115.736 172.511 123.403 182.369 115.006L182.004 112.45C182.004 112.45 183.464 112.815 183.464 115.006L184.56 113.91C184.56 113.91 183.464 111.72 180.178 108.799C178.021 106.881 177.28 103.234 177.025 100.953C176.835 99.0493 176.073 97.2472 174.84 95.7836C172.656 93.2527 168.677 90.5628 162.652 93.4635Z" fill="#2F2E41"/>
<path d="M132.631 156.108L137.411 162.191L140.453 158.715L137.846 154.369L132.631 156.108Z" fill="#FBBEBE"/>
<path d="M130.893 249.535L129.155 258.66L133.501 260.833L136.542 258.66V249.535H130.893Z" fill="#FBBEBE"/>
<path d="M161.311 249.535L163.05 258.66L158.704 260.833L155.662 258.66V249.535H161.311Z" fill="#FBBEBE"/>
<path d="M143.495 167.406L137.411 210.86L128.72 250.404L139.15 251.708L147.406 214.771L157.835 183.484L156.531 220.855L154.359 251.708H162.18L167.83 209.991L174.076 178.976L173.913 167.406H143.495Z" fill="#2F2E41"/>
<path d="M132.197 257.791C132.197 257.791 130.024 255.184 128.72 256.488C127.417 257.791 124.375 263.006 124.375 263.006C124.375 263.006 117.422 266.917 123.071 267.786C128.72 268.655 130.459 267.786 130.459 267.351C130.459 266.917 131.328 265.613 131.328 265.613L133.5 266.048L136.542 265.179C136.542 265.179 137.846 257.172 136.542 257.482C135.239 257.791 132.631 259.095 132.197 257.791Z" fill="#2F2E41"/>
<path d="M160.008 257.791C160.008 257.791 162.18 255.184 163.484 256.488C164.788 257.791 167.83 263.006 167.83 263.006C167.83 263.006 174.782 266.917 169.133 267.786C163.484 268.655 161.746 267.786 161.746 267.351C161.746 266.917 160.877 265.613 160.877 265.613L158.704 266.048L155.662 265.179C155.662 265.179 154.359 257.172 155.662 257.482C156.966 257.791 159.573 259.095 160.008 257.791Z" fill="#2F2E41"/>
<path d="M164.136 115.912C168.936 115.912 172.827 112.021 172.827 107.221C172.827 102.421 168.936 98.5301 164.136 98.5301C159.336 98.5301 155.445 102.421 155.445 107.221C155.445 112.021 159.336 115.912 164.136 115.912Z" fill="#FBBEBE"/>
<path d="M170.002 112.653C170.002 112.653 169.133 120.04 169.568 121.778C170.002 123.517 170.871 126.124 170.871 126.124L156.966 123.517C156.966 123.517 160.877 115.26 160.008 113.957C159.139 112.653 170.002 112.653 170.002 112.653Z" fill="#FBBEBE"/>
<path d="M171.306 123.082L156.966 120.04L148.71 170.448C152.431 169.431 156.375 169.583 160.008 170.882C166.091 173.055 174.348 170.882 174.348 170.882L172.61 123.517L171.306 123.082Z" fill="#FFD600"/>
<path d="M159.887 116.048L154.793 118.737L148.275 120.04L141.322 136.553L142.191 148.286C142.191 148.286 134.804 161.757 133.935 169.144C133.935 169.144 134.804 180.442 149.144 180.008L158.704 153.5C158.704 153.5 162.615 133.511 158.704 127.862C158.704 127.862 161.504 117.27 159.887 116.048Z" fill="#2F2E41"/>
<path d="M150.882 120.04L149.475 119.8L148.275 120.04C148.275 120.04 145.233 120.475 141.757 123.517C138.28 126.558 126.548 136.118 125.679 138.726C124.809 141.333 125.244 145.678 126.548 148.286C127.851 150.893 130.459 154.369 130.459 154.369L131.762 157.411L139.149 155.238C139.149 155.238 134.369 146.113 134.804 142.202L143.495 135.249L150.882 120.04Z" fill="#2F2E41"/>
<path d="M169.521 118.012L176.086 126.124L179.562 130.469L175.217 145.244L173.044 157.846C173.044 157.846 178.259 177.835 173.913 183.918C173.913 183.918 171.306 186.96 170.437 183.484C169.568 180.008 169.568 163.495 169.568 163.495C169.568 163.495 166.091 141.767 167.83 136.118C169.568 130.469 167.736 119.026 169.521 118.012Z" fill="#2F2E41"/>
<path d="M175.651 180.877V185.222C175.651 185.222 174.782 199.562 179.128 197.824C183.473 196.086 180.431 185.222 180.431 185.222L179.997 180.442L175.651 180.877Z" fill="#FBBEBE"/>
<path d="M154.448 107.684C157.753 105.292 160.428 102.537 162.198 99.2602C162.198 99.2602 168.264 106 171.97 106.337C175.677 106.673 172.307 98.2493 172.307 98.2493L165.568 96.5645L159.166 97.2384L154.111 100.608L154.448 107.684Z" fill="#2F2E41"/>
<path d="M176.086 129.165L179.562 130.469L179.997 134.815L181.735 161.322L180.866 181.311L174.348 181.746L172.175 159.584L171.306 135.249L176.086 129.165Z" fill="#2F2E41"/>
<path d="M99.2459 154.02H46.4255V159.27H99.2459V154.02Z" fill="#FFD600"/>
<path d="M99.2459 166.385H46.4255V168.373H99.2459V166.385Z" fill="#E6E6E6"/>
<path d="M99.2459 172.453H46.4255V174.442H99.2459V172.453Z" fill="#E6E6E6"/>
<path d="M73.7177 178.599H46.4255V180.587H73.7177V178.599Z" fill="#E6E6E6"/>
<path d="M99.2459 184.853H46.4255V186.841H99.2459V184.853Z" fill="#E6E6E6"/>
<path d="M99.2459 191.107H46.4255V193.095H99.2459V191.107Z" fill="#E6E6E6"/>
<path d="M72.8038 197.361H46.4255V199.35H72.8038V197.361Z" fill="#E6E6E6"/>
<path d="M99.2459 203.616H46.4255V205.604H99.2459V203.616Z" fill="#E6E6E6"/>
<path d="M99.2459 209.87H46.4255V211.858H99.2459V209.87Z" fill="#E6E6E6"/>
<path d="M99.3089 217.541H82.6289V223.025H99.3089V217.541Z" fill="#FFD600"/>
</g>
<defs>
<clipPath id="clip0_25_63">
<rect width="366" height="268.158" fill="white"/>
</clipPath>
</defs>
</svg>
