<svg width="304" height="271" viewBox="0 0 304 271" fill="none" xmlns="http://www.w3.org/2000/svg">
<g clip-path="url(#clip0_32_524)">
<path d="M235.933 238.803L239.928 223.968C247.699 221.798 255.882 221.558 263.767 223.268C250.958 229.723 248.518 247.108 238.521 257.394C235.378 260.578 231.56 263.014 227.348 264.521C223.136 266.029 218.638 266.569 214.189 266.102L203.884 269.641C204.181 262.426 206.038 255.36 209.329 248.931C212.619 242.502 217.264 236.863 222.944 232.403C226.155 229.932 229.664 227.875 233.389 226.281C234.289 232.492 235.933 238.803 235.933 238.803Z" fill="#F2F2F2"/>
<path d="M49.1863 217.71L42.4443 192.673C29.3284 189.01 15.5168 188.605 2.2088 191.492C23.8272 202.386 27.9462 231.728 44.8185 249.087C50.1224 254.461 56.5675 258.572 63.6764 261.117C70.7853 263.661 78.3756 264.573 85.8849 263.786L103.278 269.759C102.777 257.58 99.6416 245.655 94.0882 234.805C88.5348 223.954 80.6951 214.437 71.1093 206.908C65.6898 202.738 59.7668 199.267 53.4799 196.577C51.9609 207.06 49.1863 217.71 49.1863 217.71Z" fill="#F2F2F2"/>
<path d="M223.293 64.1881V23.5311C223.293 17.2903 220.814 11.305 216.401 6.89211C211.988 2.47917 206.003 0 199.762 0H113.625C107.384 1.17915e-06 101.399 2.47917 96.9858 6.89211C92.5729 11.3051 90.0937 17.2903 90.0937 23.5311V246.578C90.0937 252.819 92.5729 258.804 96.9858 263.217C101.399 267.63 107.384 270.11 113.625 270.11H199.762C206.003 270.11 211.988 267.63 216.401 263.217C220.814 258.805 223.293 252.819 223.293 246.578V93.1284C223.488 93.1284 223.681 93.09 223.861 93.0154C224.041 92.9409 224.205 92.8316 224.343 92.6937C224.48 92.5559 224.59 92.3923 224.664 92.2123C224.739 92.0322 224.777 91.8392 224.777 91.6443V65.6722C224.777 65.2786 224.621 64.9011 224.343 64.6228C224.064 64.3445 223.687 64.1881 223.293 64.1881Z" fill="#3F3D56"/>
<path d="M218.285 23.6926V246.418C218.286 251.044 216.461 255.484 213.207 258.772C209.953 262.061 205.533 263.932 200.907 263.981C200.843 263.987 200.779 263.99 200.714 263.989H114.158C109.498 263.988 105.029 262.137 101.734 258.842C98.4387 255.547 96.5874 251.078 96.5869 246.418V23.6926C96.5873 19.0327 98.4387 14.5637 101.734 11.2686C105.029 7.97349 109.498 6.12214 114.158 6.1217H124.662C124.146 7.3898 123.949 8.76538 124.089 10.1274C124.229 11.4894 124.702 12.7961 125.465 13.9325C126.229 15.069 127.26 16.0003 128.468 16.6446C129.677 17.2889 131.025 17.6263 132.394 17.6273H181.741C183.109 17.6235 184.455 17.2842 185.662 16.6389C186.868 15.9937 187.898 15.0624 188.66 13.9266C189.423 12.7908 189.895 11.4852 190.035 10.1244C190.175 8.76367 189.98 7.38924 189.465 6.1217H200.714C205.374 6.12213 209.843 7.97348 213.138 11.2686C216.434 14.5637 218.285 19.0326 218.285 23.6926Z" fill="white"/>
<path d="M90.5697 86.9332C90.0387 86.9325 89.5295 86.7213 89.154 86.3458C88.7785 85.9703 88.5673 85.4611 88.5667 84.9301V71.3092C88.5674 70.7785 88.7788 70.2698 89.1544 69.8948C89.53 69.5198 90.039 69.3091 90.5697 69.3091C91.1004 69.3091 91.6095 69.5198 91.9851 69.8948C92.3606 70.2698 92.572 70.7785 92.5728 71.3092V84.9301C92.5722 85.4612 92.3609 85.9703 91.9854 86.3458C91.6099 86.7213 91.1008 86.9325 90.5697 86.9332Z" fill="#3F3D56"/>
<path d="M90.1691 60.4926C89.638 60.492 89.1289 60.2808 88.7534 59.9053C88.3779 59.5298 88.1666 59.0206 88.166 58.4896V44.8687C88.1668 44.338 88.3782 43.8293 88.7538 43.4543C89.1293 43.0792 89.6384 42.8686 90.1691 42.8686C90.6998 42.8686 91.2089 43.0792 91.5844 43.4543C91.96 43.8293 92.1714 44.338 92.1721 44.8687V58.4896C92.1715 59.0206 91.9603 59.5298 91.5848 59.9053C91.2093 60.2808 90.7001 60.492 90.1691 60.4926Z" fill="#3F3D56"/>
<path d="M143.451 8.41292C143.451 7.88187 143.663 7.37274 144.038 6.99723C144.414 6.62171 144.923 6.41048 145.454 6.40985H159.075C159.605 6.41064 160.114 6.62203 160.489 6.99759C160.864 7.37315 161.075 7.88219 161.075 8.41292C161.075 8.94366 160.864 9.45269 160.489 9.82825C160.114 10.2038 159.605 10.4152 159.075 10.416H145.454C144.923 10.4154 144.414 10.2041 144.038 9.82862C143.663 9.4531 143.451 8.94398 143.451 8.41292Z" fill="white"/>
<path d="M90.5697 110.169C90.0387 110.168 89.5295 109.957 89.154 109.581C88.7785 109.206 88.5673 108.697 88.5667 108.166V94.5448C88.5674 94.0141 88.7788 93.5054 89.1544 93.1304C89.53 92.7554 90.039 92.5447 90.5697 92.5447C91.1004 92.5447 91.6095 92.7554 91.9851 93.1304C92.3606 93.5054 92.572 94.0141 92.5728 94.5448V108.166C92.5722 108.697 92.3609 109.206 91.9854 109.581C91.6099 109.957 91.1008 110.168 90.5697 110.169Z" fill="#3F3D56"/>
<path d="M166.686 10.416C167.793 10.416 168.689 9.51918 168.689 8.41292C168.689 7.30665 167.793 6.40985 166.686 6.40985C165.58 6.40985 164.683 7.30665 164.683 8.41292C164.683 9.51918 165.58 10.416 166.686 10.416Z" fill="white"/>
<path d="M148.032 255.351L153.423 255.35L155.987 234.556H148.031L148.032 255.351Z" fill="#9E616A"/>
<path d="M146.657 253.59L148.174 253.59L154.098 251.181L157.274 253.59C159.068 253.59 160.789 254.303 162.058 255.572C163.327 256.841 164.04 258.561 164.04 260.356V260.576L146.657 260.576L146.657 253.59Z" fill="#2F2E41"/>
<path d="M173.078 255.351L178.469 255.35L181.033 234.556H173.077L173.078 255.351Z" fill="#9E616A"/>
<path d="M171.703 253.59L173.22 253.59L179.144 251.181L182.319 253.59H182.32C184.114 253.59 185.835 254.303 187.104 255.572C188.373 256.841 189.086 258.561 189.086 260.356V260.576L171.703 260.576L171.703 253.59Z" fill="#2F2E41"/>
<path d="M177.387 141.555L135.03 142.66L135.766 163.286C135.766 163.286 135.03 168.81 136.503 170.284C137.976 171.757 138.713 171.757 137.976 174.335C137.24 176.914 141.132 181.125 140.659 181.597C140.186 182.07 139.081 184.648 139.081 184.648L142.765 205.643C142.765 205.643 145.343 242.107 146.08 242.843C146.816 243.58 147.553 242.843 146.816 244.685C146.08 246.527 145.343 245.79 146.08 246.527C146.732 247.23 147.347 247.968 147.921 248.737H156.826C156.826 248.737 157.498 245.053 157.498 244.685C157.498 244.317 158.234 242.107 158.234 241.738C158.234 241.37 157.583 240.719 157.583 240.719C157.358 239.97 157.206 239.202 157.129 238.424C157.129 237.687 154.919 209.326 154.919 209.326L159.339 172.494L170.021 208.589C170.021 208.589 170.021 240.265 170.757 241.002C171.494 241.738 171.494 241.37 171.126 242.843C170.757 244.317 169.284 243.948 170.389 245.053C171.494 246.158 171.862 244.317 171.494 246.158L171.126 248L182.175 248.158C182.175 248.158 183.649 245.053 182.912 243.948C182.175 242.843 182.219 243.145 183.118 241.337C184.017 239.529 184.385 239.16 184.017 238.792C183.648 238.424 183.649 236.464 183.649 236.464L181.807 201.223C181.807 201.223 181.439 164.022 181.439 162.917C181.411 162.349 181.516 161.781 181.745 161.26V159.76L180.334 154.446L177.387 141.555Z" fill="#2F2E41"/>
<path d="M144.249 67.5797C150.555 67.5797 155.667 62.4676 155.667 56.1616C155.667 49.8556 150.555 44.7436 144.249 44.7436C137.943 44.7436 132.831 49.8556 132.831 56.1616C132.831 62.4676 137.943 67.5797 144.249 67.5797Z" fill="#9E616A"/>
<path d="M139.061 63.9284L138.599 63.558C138.59 63.5511 137.713 62.8551 136.876 62.9769C136.685 63.0086 136.503 63.0805 136.342 63.1878C136.181 63.2951 136.044 63.4353 135.941 63.5993C135.882 63.6895 135.798 63.7601 135.699 63.8023C135.6 63.8445 135.491 63.8562 135.385 63.8361C134.299 63.665 132.337 60.4506 131.349 57.2218C130.739 55.2307 130.021 51.6227 132 49.6999C132.153 48.8294 133.732 40.9827 140.671 40.7647C147.81 40.5376 152.564 41.9793 153.71 44.7123C153.905 45.1773 154.102 45.7246 154.295 46.3389C154.394 46.6386 154.405 46.96 154.329 47.2661C154.252 47.5721 154.091 47.8502 153.863 48.0683C153.656 48.2694 153.402 48.4162 153.125 48.4953C152.847 48.5745 152.555 48.5835 152.273 48.5217C152.238 48.8725 152.146 49.2153 152 49.5364C151.377 50.8884 149.807 51.7707 148.001 51.7844C146.931 51.7687 145.872 51.5644 144.873 51.1809L147.762 53.4032L140.858 52.5444L143.12 53.7534L142.667 53.9685C141.261 54.5916 140.101 55.6629 139.369 57.0151C138.636 58.3673 138.372 59.9241 138.619 61.442L139.061 63.9284Z" fill="#2F2E41"/>
<path d="M175.307 136.097C176.913 133.322 175.383 129.314 175.383 129.314C175.383 129.314 179.54 123.169 178.52 120.548L173.625 82.6204C173.625 82.6204 172.095 78.5407 168.525 76.5008C167.546 75.9411 162.405 76.161 161.277 76.1705L157.616 74.6049C157.403 75.3816 153.409 67.2852 153.388 68.0903C150.838 68.0903 149.196 68.4422 145.229 69.1102C138.34 70.2711 141.811 76.4953 142.247 77.2301C142.072 77.2415 141.897 77.2657 141.725 77.3026C140.828 77.4709 137.768 80.1176 137.768 80.1176L132.296 84.9776C124.05 91.4491 125.896 101.546 125.896 101.546L137.921 113.648L132.653 137.928C132.653 137.928 134.892 141.533 133.734 143.15C132.576 144.766 143.933 144.302 143.933 144.302C151.772 147.795 179.386 144.843 179.386 144.843C179.004 143.843 175.307 136.097 175.307 136.097Z" fill="#E6E6E6"/>
<path d="M0.529364 270.152H303.471C303.611 270.151 303.745 270.095 303.844 269.996C303.943 269.897 303.998 269.763 303.998 269.622C303.998 269.482 303.943 269.348 303.844 269.249C303.745 269.149 303.611 269.093 303.471 269.093H0.529364C0.389231 269.093 0.254985 269.149 0.156039 269.249C0.0570928 269.348 0.00152588 269.482 0.00152588 269.622C0.00152588 269.763 0.0570928 269.897 0.156039 269.996C0.254985 270.095 0.389231 270.151 0.529364 270.152Z" fill="#CACACA"/>
<path d="M199.229 258.552C199.229 260.859 199.156 263.147 199.011 265.416C198.947 265.424 198.883 265.427 198.819 265.425H112.265C108.349 265.425 104.545 264.117 101.457 261.709C98.3689 259.3 96.1735 255.93 95.2192 252.132C95.0519 251.469 94.9257 250.796 94.8413 250.118C94.7429 249.367 94.6939 248.611 94.6946 247.855V148.598C101.355 148.927 107.971 149.862 114.461 151.39C115.097 151.537 115.729 151.692 116.355 151.853C116.395 151.861 116.435 151.875 116.475 151.884C117.111 152.044 117.743 152.213 118.369 152.386C131.75 156.061 144.311 162.245 155.382 170.61C156.018 171.086 156.649 171.575 157.276 172.068L157.396 172.162C158.446 172.989 159.478 173.836 160.495 174.705C160.722 174.896 160.949 175.092 161.171 175.292C161.718 175.763 162.265 176.243 162.798 176.728C174.605 187.355 183.977 200.407 190.274 214.99C190.483 215.466 190.683 215.946 190.883 216.426C190.963 216.622 191.044 216.817 191.124 217.013C191.199 217.191 191.27 217.369 191.341 217.546C196.568 230.585 199.246 244.505 199.229 258.552Z" fill="#3F3D56"/>
<path opacity="0.2" d="M159.29 248.682C159.29 244.523 160.109 240.404 161.7 236.562C163.291 232.719 165.624 229.228 168.565 226.287C171.505 223.346 174.997 221.014 178.839 219.422C182.682 217.831 186.8 217.012 190.959 217.013H191.124C191.044 216.817 190.963 216.622 190.883 216.426C190.683 215.946 190.483 215.466 190.274 214.99H159.29V175.292H161.171C160.949 175.092 160.722 174.896 160.495 174.705C159.477 173.838 158.444 172.99 157.396 172.162L157.276 172.068V173.269H118.369V152.386C117.743 152.213 117.111 152.044 116.475 151.884C116.435 151.875 116.395 151.861 116.355 151.853V173.269H96.5886V175.292H116.355V214.99H96.5886V217.013H116.355V248.682H96.7353C96.8197 249.36 96.9459 250.033 97.1132 250.696H116.355V263.989H118.369V250.696H157.276V263.989H159.29V250.696H193.235V248.682H159.29ZM157.276 248.682H118.369V217.013H157.276V248.682ZM157.276 214.99H118.369V214.199C118.37 203.88 122.469 193.984 129.765 186.687C137.062 179.391 146.958 175.292 157.276 175.292V214.99Z" fill="black"/>
<path d="M135.907 163.114C135.507 162.665 135.21 162.134 135.038 161.558C134.866 160.982 134.822 160.375 134.909 159.78C134.997 159.185 135.214 158.617 135.545 158.115C135.875 157.613 136.313 157.189 136.825 156.875L131.637 136.482L138.73 139.2L142.671 158.456C143.143 159.352 143.27 160.39 143.028 161.373C142.786 162.356 142.192 163.216 141.358 163.79C140.524 164.364 139.509 164.612 138.504 164.488C137.499 164.363 136.575 163.874 135.907 163.114Z" fill="#9E616A"/>
<path d="M126.36 97.6684L125.719 105.812C125.719 105.812 124.923 114.758 125.132 116.413C125.34 118.067 125.728 128.17 125.728 128.17L132.48 141.526L140.129 139.486L139.671 133.221L140.129 138.976L141.149 133.876L138.599 125.207L140.129 122.147L139.358 111.876L126.36 97.6684Z" fill="#E6E6E6"/>
<path d="M302.264 152.615C301.363 151.547 300.086 150.867 298.696 150.716C298.499 150.694 298.3 150.683 298.102 150.683L195.574 150.587C194.832 150.585 194.097 150.735 193.415 151.027C192.733 151.32 192.119 151.749 191.609 152.289C190.627 153.356 190.091 154.758 190.11 156.208L190.094 172.862C190.087 175.88 190.74 178.863 192.01 181.6C191.302 184.287 190.117 186.824 188.514 189.093C188.015 189.811 187.729 190.656 187.688 191.53C187.648 192.404 187.855 193.272 188.286 194.033C188.717 194.795 189.354 195.42 190.124 195.835C190.893 196.251 191.765 196.441 192.638 196.384C193.719 196.317 194.795 196.195 195.863 196.017C198.972 195.53 201.938 194.375 204.556 192.631C206.571 193.265 208.67 193.588 210.782 193.589L282.876 193.656C285.595 193.666 288.289 193.136 290.801 192.095C293.313 191.054 295.593 189.525 297.508 187.595C301.411 183.611 303.579 178.245 303.54 172.669L303.555 156.32C303.578 154.971 303.12 153.658 302.264 152.615Z" fill="#FFD600"/>
<path d="M275.476 165.701L218.172 165.648C218.008 165.647 217.846 165.615 217.695 165.552C217.544 165.489 217.406 165.397 217.291 165.282C217.175 165.166 217.083 165.028 217.021 164.877C216.958 164.725 216.926 164.563 216.926 164.4C216.926 164.236 216.959 164.074 217.022 163.923C217.084 163.771 217.176 163.634 217.292 163.518C217.408 163.403 217.546 163.311 217.697 163.248C217.848 163.186 218.011 163.154 218.174 163.154L275.478 163.207C275.809 163.208 276.126 163.339 276.359 163.573C276.593 163.807 276.724 164.125 276.724 164.455C276.723 164.786 276.592 165.103 276.358 165.337C276.124 165.57 275.806 165.701 275.476 165.701Z" fill="white"/>
<path d="M275.469 173.354L218.165 173.301C218.001 173.3 217.839 173.268 217.688 173.205C217.537 173.142 217.399 173.05 217.284 172.935C217.168 172.819 217.076 172.681 217.014 172.53C216.951 172.379 216.919 172.216 216.919 172.053C216.919 171.889 216.952 171.727 217.015 171.576C217.077 171.424 217.169 171.287 217.285 171.171C217.401 171.056 217.539 170.964 217.69 170.901C217.841 170.839 218.003 170.807 218.167 170.807L275.471 170.86C275.802 170.861 276.119 170.992 276.352 171.226C276.586 171.461 276.717 171.778 276.717 172.108C276.716 172.439 276.585 172.756 276.351 172.99C276.117 173.223 275.799 173.354 275.469 173.354Z" fill="white"/>
<path d="M224.836 180.96L218.158 180.953C217.994 180.953 217.832 180.921 217.681 180.858C217.53 180.795 217.392 180.703 217.276 180.587C217.161 180.472 217.069 180.334 217.007 180.183C216.944 180.031 216.912 179.869 216.912 179.705C216.912 179.542 216.945 179.38 217.007 179.228C217.07 179.077 217.162 178.94 217.278 178.824C217.394 178.709 217.532 178.617 217.683 178.554C217.834 178.492 217.996 178.46 218.16 178.46L224.838 178.466C225.168 178.467 225.485 178.599 225.718 178.833C225.951 179.067 226.082 179.384 226.082 179.714C226.081 180.044 225.95 180.361 225.716 180.595C225.483 180.828 225.166 180.959 224.836 180.96Z" fill="white"/>
<path d="M1.42308 88.1486C2.32391 87.0803 3.60163 86.3999 4.99091 86.2488C5.18845 86.2275 5.38699 86.2167 5.58568 86.2165L108.113 86.1207C108.855 86.1181 109.59 86.2677 110.272 86.5604C110.954 86.8531 111.569 87.2826 112.078 87.8223C113.06 88.8892 113.596 90.2911 113.577 91.7408L113.593 108.396C113.601 111.413 112.947 114.396 111.677 117.134C112.386 119.82 113.57 122.357 115.174 124.626C115.673 125.345 115.959 126.189 115.999 127.063C116.039 127.937 115.832 128.805 115.401 129.567C114.97 130.328 114.334 130.953 113.564 131.369C112.794 131.784 111.922 131.975 111.049 131.917C109.969 131.85 108.892 131.728 107.824 131.55C104.716 131.063 101.75 129.908 99.1309 128.164C97.1164 128.798 95.017 129.121 92.905 129.122L20.8113 129.19C18.0923 129.2 15.3985 128.669 12.8865 127.628C10.3745 126.588 8.09453 125.058 6.17913 123.128C2.27643 119.144 0.108038 113.779 0.147262 108.202L0.131971 91.8536C0.109264 90.5046 0.566883 89.1914 1.42308 88.1486Z" fill="#FFD600"/>
<path d="M26.9636 99.9887C26.9636 99.6581 27.0948 99.3411 27.3284 99.1071C27.5619 98.8732 27.8787 98.7414 28.2092 98.7407L85.513 98.6872C85.8437 98.6869 86.161 98.8179 86.395 99.0515C86.629 99.2851 86.7607 99.6021 86.761 99.9328C86.7613 100.263 86.6302 100.581 86.3966 100.815C86.163 101.049 85.846 101.18 85.5154 101.181L28.2115 101.234C27.881 101.234 27.564 101.103 27.33 100.869C27.0961 100.636 26.9643 100.319 26.9636 99.9887Z" fill="white"/>
<path d="M26.9707 107.642C26.9708 107.311 27.102 106.994 27.3355 106.76C27.569 106.526 27.8858 106.394 28.2163 106.394L85.5202 106.34C85.8508 106.34 86.1681 106.471 86.4021 106.705C86.6362 106.938 86.7678 107.255 86.7681 107.586C86.7685 107.917 86.6374 108.234 86.4038 108.468C86.1702 108.702 85.8532 108.834 85.5225 108.834L28.2187 108.887C27.8881 108.887 27.5711 108.756 27.3371 108.523C27.1032 108.289 26.9714 107.972 26.9707 107.642Z" fill="white"/>
<path d="M77.6038 115.247C77.6038 114.917 77.735 114.6 77.9686 114.366C78.2021 114.132 78.5188 114 78.8494 113.999L85.5273 113.993C85.858 113.993 86.1752 114.124 86.4093 114.357C86.6433 114.591 86.775 114.908 86.7753 115.239C86.7756 115.569 86.6445 115.887 86.4109 116.121C86.1773 116.355 85.8603 116.486 85.5297 116.487L78.8517 116.493C78.5212 116.493 78.2042 116.362 77.9702 116.128C77.7363 115.895 77.6045 115.578 77.6038 115.247Z" fill="white"/>
<path d="M207.926 49.599C207.355 49.8851 206.854 50.293 206.457 50.794C206.06 51.2949 205.778 51.8768 205.631 52.4985C205.484 53.1202 205.474 53.7666 205.604 54.3923C205.733 55.018 205.998 55.6077 206.38 56.1199L197.663 68.9741L205.733 69.0786L212.774 56.856C213.592 56.1572 214.125 55.1827 214.273 54.1171C214.42 53.0515 214.171 51.9688 213.574 51.0743C212.976 50.1798 212.071 49.5355 211.03 49.2636C209.99 48.9917 208.885 49.111 207.926 49.599Z" fill="#9E616A"/>
<path d="M210.695 61.7208L197.265 86.4154L197.145 86.4233C197.047 86.4299 192.774 86.7126 187.555 86.9959C186.675 87.0437 186.157 88.605 185.238 88.6515C184.605 88.6835 182.27 91.6183 181.632 91.6487C175.944 91.919 172.681 94.5186 170.517 94.3162C167.583 94.0719 163.675 86.0019 161.544 83.9714L161.494 83.9182L161.486 83.8456C161.337 82.3647 161.697 80.8772 162.507 79.6283C163.317 78.3794 164.528 77.4437 165.941 76.9754C172.774 74.7512 180.031 74.1455 187.138 75.2064L191.18 75.8145L203.451 59.3342L210.695 61.7208Z" fill="#E6E6E6"/>
<path d="M283.147 13.9007C282.246 12.8323 280.968 12.152 279.579 12.0009C279.381 11.9795 279.183 11.9687 278.984 11.9686L176.457 11.8728C175.714 11.8702 174.98 12.0199 174.298 12.3125C173.616 12.6052 173.001 13.0347 172.491 13.5744C171.51 14.6413 170.973 16.0432 170.992 17.4929L170.977 34.1478C170.969 37.1655 171.623 40.1482 172.892 42.8858C172.184 45.572 171 48.1095 169.396 50.3779C168.897 51.0967 168.611 51.9416 168.571 52.8156C168.53 53.6896 168.738 54.5572 169.168 55.3188C169.599 56.0803 170.236 56.7049 171.006 57.1207C171.776 57.5364 172.647 57.7266 173.52 57.6693C174.601 57.6025 175.677 57.4801 176.745 57.3024C179.854 56.8156 182.82 55.6604 185.439 53.9163C187.453 54.5503 189.553 54.8734 191.665 54.8745L263.758 54.9418C266.477 54.9518 269.171 54.421 271.683 53.3804C274.195 52.3397 276.475 50.81 278.39 48.8802C282.293 44.8965 284.462 39.5306 284.422 33.9539L284.438 17.6057C284.46 16.2567 284.003 14.9435 283.147 13.9007Z" fill="#FFD600"/>
<path d="M256.358 26.9864L199.054 26.9329C198.891 26.9327 198.728 26.9003 198.577 26.8375C198.426 26.7747 198.289 26.6828 198.173 26.5669C198.057 26.451 197.966 26.3135 197.903 26.1621C197.841 26.0108 197.809 25.8486 197.809 25.6849C197.809 25.5212 197.841 25.3591 197.904 25.2079C197.967 25.0567 198.059 24.9193 198.175 24.8036C198.291 24.688 198.428 24.5962 198.579 24.5337C198.731 24.4712 198.893 24.4391 199.057 24.4393L256.36 24.4928C256.691 24.4931 257.008 24.6247 257.242 24.8588C257.475 25.0928 257.606 25.4101 257.606 25.7407C257.606 26.0714 257.474 26.3884 257.24 26.622C257.006 26.8556 256.689 26.9867 256.358 26.9864Z" fill="white"/>
<path d="M256.351 34.6394L199.047 34.5859C198.716 34.5856 198.399 34.454 198.166 34.2199C197.932 33.9859 197.801 33.6686 197.802 33.338C197.802 33.0073 197.933 32.6903 198.167 32.4567C198.402 32.2231 198.719 32.092 199.049 32.0923L256.353 32.1458C256.684 32.1461 257.001 32.2778 257.235 32.5118C257.468 32.7459 257.599 33.0631 257.599 33.3938C257.599 33.7245 257.467 34.0415 257.233 34.2751C256.999 34.5087 256.682 34.6397 256.351 34.6394Z" fill="white"/>
<path d="M205.718 42.245L199.04 42.2388C198.876 42.2386 198.714 42.2062 198.563 42.1434C198.412 42.0806 198.274 41.9886 198.159 41.8728C198.043 41.7569 197.951 41.6193 197.889 41.468C197.826 41.3167 197.794 41.1545 197.794 40.9908C197.795 40.8271 197.827 40.665 197.89 40.5138C197.953 40.3625 198.044 40.2252 198.16 40.1095C198.276 39.9938 198.414 39.9021 198.565 39.8396C198.716 39.7771 198.879 39.745 199.042 39.7451L205.72 39.7514C206.051 39.7522 206.367 39.8841 206.6 40.1181C206.833 40.3521 206.964 40.669 206.964 40.9993C206.964 41.3297 206.832 41.6464 206.599 41.8799C206.365 42.1135 206.048 42.2447 205.718 42.245Z" fill="white"/>
</g>
<defs>
<clipPath id="clip0_32_524">
<rect width="304" height="270.152" fill="white"/>
</clipPath>
</defs>
</svg>
