<svg width="17" height="21" viewBox="0 0 17 21" fill="none" xmlns="http://www.w3.org/2000/svg">
<path d="M14.2856 11.7718V8.53538C14.2842 7.09336 13.7724 5.69839 12.841 4.5975C11.9097 3.49661 10.6187 2.76085 9.19689 2.52052V1.41118C9.19689 1.14125 9.08967 0.882387 8.8988 0.691523C8.70794 0.500659 8.44907 0.393433 8.17915 0.393433C7.90923 0.393433 7.65036 0.500659 7.4595 0.691523C7.26863 0.882387 7.16141 1.14125 7.16141 1.41118V2.52052C5.73956 2.76085 4.44864 3.49661 3.51726 4.5975C2.58588 5.69839 2.07415 7.09336 2.07269 8.53538V11.7718C1.47878 11.9818 0.964364 12.3703 0.599951 12.8841C0.235537 13.398 0.0389713 14.0119 0.0372009 14.6418V16.6773C0.0372009 16.9473 0.144427 17.2061 0.335291 17.397C0.526155 17.5879 0.785022 17.6951 1.05494 17.6951H4.25066C4.48503 18.5575 4.99667 19.3188 5.70664 19.8616C6.41661 20.4044 7.28547 20.6984 8.17915 20.6984C9.07283 20.6984 9.94169 20.4044 10.6517 19.8616C11.3616 19.3188 11.8733 18.5575 12.1076 17.6951H15.3034C15.5733 17.6951 15.8321 17.5879 16.023 17.397C16.2139 17.2061 16.3211 16.9473 16.3211 16.6773V14.6418C16.3193 14.0119 16.1228 13.398 15.7584 12.8841C15.3939 12.3703 14.8795 11.9818 14.2856 11.7718ZM4.10818 8.53538C4.10818 7.45569 4.53708 6.42022 5.30054 5.65677C6.06399 4.89331 7.09946 4.46441 8.17915 4.46441C9.25884 4.46441 10.2943 4.89331 11.0578 5.65677C11.8212 6.42022 12.2501 7.45569 12.2501 8.53538V11.5886H4.10818V8.53538ZM8.17915 18.7128C7.82393 18.7107 7.47546 18.6156 7.16836 18.4371C6.86126 18.2585 6.60624 18.0027 6.42863 17.6951H9.92967C9.75206 18.0027 9.49704 18.2585 9.18994 18.4371C8.88285 18.6156 8.53437 18.7107 8.17915 18.7128ZM14.2856 15.6596H2.07269V14.6418C2.07269 14.3719 2.17991 14.1131 2.37078 13.9222C2.56164 13.7313 2.82051 13.6241 3.09043 13.6241H13.2679C13.5378 13.6241 13.7967 13.7313 13.9875 13.9222C14.1784 14.1131 14.2856 14.3719 14.2856 14.6418V15.6596Z" fill="black"/>
</svg>
