<svg width="22" height="21" viewBox="0 0 22 21" fill="none" xmlns="http://www.w3.org/2000/svg">
<path d="M20.7512 18.9827L16.9754 15.2374C18.441 13.41 19.1508 11.0904 18.9588 8.75573C18.7667 6.42102 17.6875 4.24863 15.9429 2.68524C14.1984 1.12184 11.9211 0.286277 9.57938 0.350355C7.23767 0.414432 5.0095 1.37328 3.35304 3.02974C1.69658 4.6862 0.737735 6.91436 0.673658 9.25607C0.60958 11.5978 1.44514 13.875 3.00854 15.6196C4.57193 17.3642 6.74433 18.4434 9.07903 18.6355C11.4137 18.8275 13.7333 18.1177 15.5607 16.6521L19.306 20.3974C19.4006 20.4928 19.5132 20.5685 19.6372 20.6202C19.7612 20.6718 19.8943 20.6984 20.0286 20.6984C20.163 20.6984 20.296 20.6718 20.42 20.6202C20.5441 20.5685 20.6566 20.4928 20.7512 20.3974C20.9347 20.2076 21.0372 19.954 21.0372 19.6901C21.0372 19.4261 20.9347 19.1725 20.7512 18.9827ZM9.85119 16.6521C8.44216 16.6521 7.06476 16.2343 5.8932 15.4514C4.72163 14.6686 3.8085 13.556 3.26928 12.2542C2.73007 10.9524 2.58899 9.51999 2.86388 8.13803C3.13876 6.75606 3.81728 5.48665 4.81362 4.49031C5.80996 3.49398 7.07937 2.81546 8.46133 2.54057C9.84329 2.26568 11.2757 2.40677 12.5775 2.94598C13.8793 3.48519 14.9919 4.39832 15.7748 5.56989C16.5576 6.74146 16.9754 8.11885 16.9754 9.52789C16.9754 11.4173 16.2248 13.2294 14.8888 14.5655C13.5527 15.9015 11.7406 16.6521 9.85119 16.6521Z" fill="black"/>
</svg>
