<svg width="21" height="21" viewBox="0 0 21 21" fill="none" xmlns="http://www.w3.org/2000/svg">
<path d="M10.5272 0.342651C9.19071 0.342651 7.86728 0.605899 6.63249 1.11736C5.39771 1.62883 4.27576 2.37849 3.33069 3.32355C1.42205 5.23219 0.349792 7.82086 0.349792 10.5201C0.340895 12.8702 1.15462 15.1493 2.64989 16.9624L0.614406 18.9979C0.473186 19.141 0.377522 19.3228 0.339485 19.5202C0.301447 19.7176 0.322741 19.9219 0.40068 20.1072C0.485211 20.2904 0.622247 20.4442 0.79439 20.5493C0.966534 20.6544 1.16602 20.706 1.36754 20.6975H10.5272C13.2265 20.6975 15.8151 19.6253 17.7238 17.7166C19.6324 15.808 20.7047 13.2193 20.7047 10.5201C20.7047 7.82086 19.6324 5.23219 17.7238 3.32355C15.8151 1.41491 13.2265 0.342651 10.5272 0.342651ZM10.5272 18.662H3.8203L4.7668 17.7155C4.95636 17.5248 5.06275 17.2669 5.06275 16.998C5.06275 16.7292 4.95636 16.4712 4.7668 16.2805C3.43415 14.9494 2.60427 13.1973 2.41855 11.3229C2.23283 9.44845 2.70276 7.56762 3.74827 6.00082C4.79378 4.43402 6.3502 3.27819 8.15234 2.73025C9.95448 2.18231 11.8909 2.27617 13.6316 2.99582C15.3723 3.71548 16.8096 5.01641 17.6987 6.67698C18.5878 8.33754 18.8736 10.255 18.5075 12.1027C18.1414 13.9504 17.1459 15.6139 15.6908 16.81C14.2357 18.006 12.4108 18.6606 10.5272 18.662Z" fill="black"/>
</svg>
