<svg width="19" height="21" viewBox="0 0 19 21" fill="none" xmlns="http://www.w3.org/2000/svg">
<path d="M17.9828 6.36512L11.9828 1.11141C11.4328 0.620041 10.7207 0.348389 9.98282 0.348389C9.24489 0.348389 8.53285 0.620041 7.98283 1.11141L1.98288 6.36512C1.66525 6.64886 1.41178 6.99692 1.23935 7.38614C1.06693 7.77537 0.979496 8.19681 0.982883 8.62242V17.352C0.982883 18.1467 1.29895 18.9088 1.86156 19.4708C2.42416 20.0327 3.18722 20.3484 3.98286 20.3484H15.9828C16.7784 20.3484 17.5415 20.0327 18.1041 19.4708C18.6667 18.9088 18.9828 18.1467 18.9828 17.352V8.61243C18.9847 8.1885 18.8966 7.76898 18.7242 7.38159C18.5518 6.99419 18.2991 6.64774 17.9828 6.36512ZM11.9828 18.3508H7.98283V13.3568C7.98283 13.0919 8.08819 12.8378 8.27572 12.6505C8.46326 12.4632 8.71761 12.358 8.98283 12.358H10.9828C11.248 12.358 11.5024 12.4632 11.6899 12.6505C11.8774 12.8378 11.9828 13.0919 11.9828 13.3568V18.3508ZM16.9828 17.352C16.9828 17.6169 16.8774 17.8709 16.6899 18.0582C16.5023 18.2455 16.248 18.3508 15.9828 18.3508H13.9828V13.3568C13.9828 12.5621 13.6667 11.7999 13.1041 11.238C12.5415 10.676 11.7785 10.3603 10.9828 10.3603H8.98283C8.18718 10.3603 7.42413 10.676 6.86152 11.238C6.29892 11.7999 5.98285 12.5621 5.98285 13.3568V18.3508H3.98286C3.71765 18.3508 3.4633 18.2455 3.27576 18.0582C3.08823 17.8709 2.98287 17.6169 2.98287 17.352V8.61243C2.98305 8.47062 3.01346 8.33047 3.07209 8.2013C3.13071 8.07214 3.2162 7.95693 3.32287 7.86333L9.32282 2.6196C9.50531 2.45948 9.73991 2.37117 9.98282 2.37117C10.2257 2.37117 10.4603 2.45948 10.6428 2.6196L16.6428 7.86333C16.7494 7.95693 16.8349 8.07214 16.8936 8.2013C16.9522 8.33047 16.9826 8.47062 16.9828 8.61243V17.352Z" fill="black"/>
</svg>
