<svg width="22" height="20" viewBox="0 0 22 20" fill="none" xmlns="http://www.w3.org/2000/svg">
<path d="M21.6374 17.1438L20.6197 13.2154L17.4138 1.41971C17.3445 1.15951 17.175 0.937372 16.9422 0.801937C16.7095 0.666501 16.4326 0.628807 16.1721 0.69711L12.2335 1.71485C12.1395 1.61068 12.025 1.52707 11.8971 1.46928C11.7693 1.41148 11.6308 1.38074 11.4905 1.379H1.31309C1.04317 1.379 0.784303 1.48622 0.593439 1.67709C0.402575 1.86795 0.295349 2.12682 0.295349 2.39674V18.6806C0.295349 18.9506 0.402575 19.2094 0.593439 19.4003C0.784303 19.5912 1.04317 19.6984 1.31309 19.6984H11.4905C11.7605 19.6984 12.0193 19.5912 12.2102 19.4003C12.401 19.2094 12.5083 18.9506 12.5083 18.6806V10.5387L14.7473 18.9045C14.8069 19.1266 14.94 19.3219 15.1248 19.4586C15.3096 19.5954 15.5353 19.6655 15.7651 19.6577C15.853 19.6677 15.9417 19.6677 16.0297 19.6577L20.9454 18.3448C21.0753 18.31 21.1971 18.2499 21.3037 18.1678C21.4102 18.0857 21.4995 17.9833 21.5662 17.8664C21.6735 17.6413 21.6988 17.3856 21.6374 17.1438ZM5.35353 17.7036H2.3003V15.6681H5.35353V17.7036ZM5.35353 13.6326H2.3003V7.52617H5.35353V13.6326ZM5.35353 5.49068H2.3003V3.45519H5.35353V5.49068ZM10.4423 17.7036H7.38902V15.6681H10.4423V17.7036ZM10.4423 13.6326H7.38902V7.52617H10.4423V13.6326ZM10.4423 5.49068H7.38902V3.45519H10.4423V5.49068ZM12.7322 3.71981L15.6836 2.92597L16.2129 4.89021L13.2614 5.68405L12.7322 3.71981ZM15.3681 13.5512L13.7906 7.6483L16.7421 6.85446L18.3196 12.7574L15.3681 13.5512ZM16.3859 17.4797L15.8566 15.5155L18.8081 14.7216L19.3373 16.6859L16.3859 17.4797Z" fill="black"/>
</svg>
